<?xml version="1.0" encoding="utf-8"?>
<!-- Generator: Adobe Illustrator 25.4.1, SVG Export Plug-In . SVG Version: 6.00 Build 0)  -->
<svg version="1.1" id="Layer_1" xmlns="http://www.w3.org/2000/svg" xmlns:xlink="http://www.w3.org/1999/xlink" x="0px" y="0px"
	 viewBox="0 0 601.6 253.5" style="enable-background:new 0 0 601.6 253.5;" xml:space="preserve">
<style type="text/css">
	.st0{fill:#FFFFFF;}
	.st1{fill:#1D428A;}
	.st2{fill:#C8102E;}
</style>
<g>
	<g>
		<polygon class="st0" points="143.1,253.5 0,79.1 61.1,9.5 225.1,9.5 286.2,79.1 		"/>
		<path class="st1" d="M84.4,68.8c0.4-1.5,1.6-4.4,2.2-6c-3.5-16.6-12.1-31.8-25-43.4L12,75.8h68.9C82.3,73,83.5,70.5,84.4,68.8z"/>
		<path class="st1" d="M91.4,53.8c4.9-7.5,8.3-7,15.6-7.7l0.5-0.7c9.3-0.4,7.8-1.1,9.1-10.1c-1.4,0.6-1.8-2.8-1.8-2.8
			c-0.7-5.1,1.4-4.1,2.4-4.2c0.2-6.8,0.8-9.8,4.3-12H68.4C79.2,26.8,87.1,39.7,91.4,53.8z"/>
		<path class="st1" d="M147.2,237.7c-5.3-3.5-1.9-9.9-1.6-21.7c-3-2.7-1-3.8-1.1-4.8c-2-8.1-8.4-13-5.1-15.7c-0.8-2.7-2.5-6.1-2.4-6
			c-10.1-5.8-18.6-15.2-20.1-16.5c-1.8-1.9-4.8-3.8-5.3-5.4c-2.4-2.2-14.3-19-17-25.2l-4.8-0.7c-1.4-5.9-5.1-11.1-7.4-16.5
			c-4.9,7.9-11,15-18.3,21.1l79.2,96.5L147.2,237.7z"/>
		<path class="st1" d="M80,114.8c0.3-3.7,1.6-9.4,2.1-10.7c0.6-1.5,3.4-3.9,3.4-3.9v-2.4C75,98.1,78,97,76.2,93
			c-1.3-2.8-0.4-3.4,0.1-5.4c0.4-1.5,0.9-3.1,1.6-4.8H11.8l47.7,58.1C68.3,133.6,75.2,124.7,80,114.8z"/>
		<g>
			<path class="st2" d="M226.3,141.3l48.1-58.6h-50.3v-0.1c0-2.6-0.2-4.8-0.6-6.8h50.7L224.3,19c-7,6.2-12.7,13.4-17.1,21.3h-7.8
				c4.4-8.8,10.3-16.9,17.6-23.9h-83.9c1.1,0.7,1.9,1.6,2.5,2.7c2.3,0.2,5,5.3,0.8,12.9c1.9,1.3,0.4,3.1-0.9,5.3
				c-0.4,0.7-0.8,1.9-2.1,1.9c-1.6,3.4-3.6,6.7-5,6.9c-0.4,0.5-0.8,2-0.1,2.7c2.2,1,4.8,2.3,6.1,3.5l0.1,0.8c1.7,1,2.5,1.8,4.2,2.9
				c4,2.5,8.8,6.8,9.3,19.9h22.7c-0.4,2.1-0.7,4.4-0.9,6.9h-21.3c1,4,1.5,9.8,2.5,11.9c2.3,4.6,3.9,7.6,4.6,12c0,0,0.7,6.8,1.5,7.3
				c4.6,1,3.3,1.5,4,2.3c0.7,0.9,3.4,0.9,3.4,3.4c0.9,1.2,1.6,2.5,2.1,3.9c0,0,1.2,2.4,1.2,6.2c0,1.7-0.3,3.9-1.2,6
				c-2.4,6.1-8.4,10.4-15.4,10.4c-9.2,0-16.5-7.4-16.5-16.5c0-7.8,5.4-14.3,12.6-16.1c-1.9-4.8-5.9-12.5-7.1-15
				c-1.1-2.5-3.9-18.3-4.4-21.4c-0.1-0.7-7.1,4.1-7.2,4.4c-0.4,0.4-5.3,13.1-5.5,13.7c-0.1,0.4-0.1,2.1-0.1,2.1s2.4,0.3,3.8,4.5
				c1.4,4.2,5.5,19.3,5.5,19.3s-1.1,1.2-1.2,1.1c5.2,17.5,3.4,25,5.7,30.2c2.9,7.2,3.7,6.3,6.3,12.4c1.8,4.4,3.8,21.8,4.5,22.6
				c2.8,3.6,4.3,6.4,4.3,8.4c0,2-2.4,8-1.5,11.5c0.5,2.1,0.8,6.7,1.8,7.5c0,0,0.9,1.7,0.4,2.5c-0.1,0.3-0.4,0.7-0.3,1
				c0.8,2.7,2.4,6.4,2.8,10l66.9-81.5c-9.6-7.9-17.2-17.6-22.6-28.4h7.8C211.9,126.9,218.4,134.7,226.3,141.3z M191.5,53.9l-3.6,9.7
				c-3.8,10.1-3.6,20.7-3.6,42.3v5.9h-9v-4.1c0-25.3,1.2-34.2,6.1-45.8l3-7h-14.7v-8.2h21.9V53.9z M195.2,99.2V85.7h8.8V100
				c0,3.3,0.8,4.2,2.6,4.2c1.6,0,2.5-0.9,2.5-4.2V82.7c0-3.1-0.3-5.5-3.5-5.5c-2,0-3.3,1.4-4.3,3.1l-6-3V46.7h22.2v8.2h-14.2v15.9
				c1.6-0.6,3.6-1.1,5.7-1.1c7.4,0,8.8,6.2,8.8,12.9v16.5c0,9.9-3.6,13.2-11.2,13.2C198.8,112.4,195.2,109.1,195.2,99.2z"/>
		</g>
	</g>
	<g>
		<g>
			<g>
				<path class="st0" d="M331.3,242.7h-26.6V16.4h41.2L373.5,205c-4.1-44.1-9.5-117.3-9.5-155.6v-33h26.6v226.3h-37.7L327.5,62.1
					c2.2,40.6,3.8,88.4,3.8,115.7V242.7z M443.5,242.7h-37.7V16.4h37.7c25,0,40.6,13.6,40.6,45.6v33c0,20.6-6.3,31.1-15.2,36.4
					c8.9,5.7,15.2,15.8,15.2,33.3v33C484.1,228.8,467.6,242.7,443.5,242.7z M436.2,44.9v74.8h3.8c10.8,0,13.6-3.8,13.6-16.5V60.2
					c0-10.5-3.2-15.2-12.4-15.2H436.2z M436.2,144.5v69.7h5.1c9.5,0,12.4-5.1,12.4-15.8v-38.7c0-10.8-3.5-15.2-13.6-15.2H436.2z
					 M541.1,198h-18.7l-2.5,44.7h-30.7L511,16.4h43.4L576,242.7h-32L541.1,198z M524,169.8h15.5l-2.2-36.8
					c-1.3-17.1-4.4-72.3-6-99.5c-1.9,27.3-4.1,83.3-5.1,99.5L524,169.8z"/>
			</g>
		</g>
	</g>
</g>
</svg>
